<svg width="30" height="30" viewBox="0 0 30 30" fill="none" xmlns="http://www.w3.org/2000/svg">
<path d="M15 0C6.71601 0 0 6.7157 0 15C0 23.2843 6.71601 30 15 30C23.284 30 30 23.2843 30 15C30 6.7157 23.284 0 15 0ZM16.726 19.9823C15.3385 19.9823 14.0336 19.2322 13.5867 18.3806C13.5867 18.3806 12.8403 21.3407 12.6835 21.9118C12.1271 23.9313 10.4903 25.9513 10.363 26.1167C10.2743 26.2318 10.0782 26.1959 10.0579 26.0431C10.0232 25.7859 9.60522 23.2383 10.0969 21.1605C10.3427 20.117 11.749 14.1588 11.749 14.1588C11.749 14.1588 11.3395 13.3384 11.3395 12.1255C11.3395 10.2212 12.4432 8.79959 13.8175 8.79959C14.9859 8.79959 15.55 9.67703 15.55 10.7288C15.55 11.9036 14.8024 13.6604 14.4166 15.2882C14.094 16.6511 15.0994 17.7631 16.4437 17.7631C18.8784 17.7631 20.5169 14.6363 20.5169 10.931C20.5169 8.1155 18.6215 6.00706 15.1713 6.00706C11.2745 6.00706 8.8444 8.91376 8.8444 12.1611C8.8444 13.2801 9.17524 14.0704 9.69269 14.6808C9.92992 14.9616 9.96368 15.0746 9.87744 15.3968C9.81514 15.6335 9.67488 16.2025 9.61535 16.4274C9.52972 16.7533 9.26639 16.8694 8.97146 16.7494C7.17729 16.0168 6.34066 14.0507 6.34066 11.8407C6.34066 8.19069 9.41862 3.81391 15.5239 3.81391C20.4298 3.81391 23.6587 7.36358 23.6587 11.1747C23.659 16.2166 20.8561 19.9823 16.726 19.9823Z" fill="white"/>
</svg>
